<svg viewBox="0 0 489 373"><path d="M10.629,368.181c4.186,2.87 20.331,10.883 33.964,-6.338l92.325,-134.9l97.707,94.239c5.142,4.903 12.198,7.534 19.373,6.697c7.056,-0.718 13.514,-4.425 17.7,-10.285l162.047,-232.367l5.86,77.735c1.435,19.733 19.971,22.962 26.19,22.483c13.394,-1.076 23.56,-12.677 22.483,-26.19l-10.285,-136.694c-0.956,-13.394 -12.676,-23.559 -26.19,-22.483l-136.693,10.285c-13.395,0.957 -23.56,12.677 -22.484,26.191c0.957,13.394 12.558,23.44 26.191,22.483l77.734,-5.86l-148.532,212.873l-97.946,-94.477c-5.142,-5.023 -12.318,-7.535 -19.374,-6.698c-7.175,0.718 -13.633,4.545 -17.699,10.525l-108.709,158.817c-7.654,11.122 -4.784,26.31 6.338,33.964Z"/></svg>
