<?xml version="1.0" encoding="UTF-8" standalone="no"?><!DOCTYPE svg PUBLIC "-//W3C//DTD SVG 1.1//EN" "http://www.w3.org/Graphics/SVG/1.1/DTD/svg11.dtd"><svg width="100%" height="100%" viewBox="0 0 20 20" version="1.1" xmlns="http://www.w3.org/2000/svg" xmlns:xlink="http://www.w3.org/1999/xlink" xml:space="preserve" style="fill-rule:evenodd;clip-rule:evenodd;"><path d="M16.592,9.842c0,3.729 -3.022,6.75 -6.75,6.75c-3.727,0 -6.75,-3.021 -6.75,-6.75c0,-3.727 3.023,-6.75 6.75,-6.75c3.728,0 6.75,3.023 6.75,6.75Z" style="fill:#d99f45;fill-rule:nonzero;stroke:#fff;stroke-width:1.5px;"/><path d="M15.842,9.842c0,3.314 -2.686,6 -6,6c-3.313,0 -6,-2.686 -6,-6c0,-3.313 2.687,-6 6,-6c3.314,0 6,2.687 6,6" style="fill:#d99f45;fill-rule:nonzero;"/><path d="M11.509,13.592l-3.333,0c0,-0.517 0.373,-0.937 0.833,-0.937l0.417,0l0,-0.938l0.833,0l0,0.938l0.417,0c0.46,0 0.833,0.42 0.833,0.937Zm0,-7.5c0.23,0 0.417,0.21 0.417,0.469l0,0.469l1.25,0c0.23,0 0.416,0.21 0.416,0.469l0,0.937c0,0.754 -0.444,1.875 -1.666,1.875l-0.175,0c-0.321,0.828 -1.055,1.406 -1.909,1.406c-0.854,0 -1.587,-0.578 -1.909,-1.406l-0.174,0c-1.223,0 -1.667,-1.121 -1.667,-1.875l0,-0.937c0,-0.259 0.187,-0.469 0.417,-0.469l1.25,0l0,-0.469c0,-0.259 0.187,-0.469 0.417,-0.469l3.333,0Zm-3.75,4.219c-0.016,0.008 -0.016,0.01 -0.009,0.01c0.002,0 0.005,0 0.009,-0.001l0,-0.009l0,0Zm4.167,0l0,0.009c0.003,0.001 0.007,0.001 0.009,0.001c0.006,0 0.007,-0.002 -0.009,-0.01l0,0Z" style="fill:#fff;"/><clipPath id="_clip1"><path d="M11.509,13.592l-3.333,0c0,-0.517 0.373,-0.937 0.833,-0.937l0.417,0l0,-0.938l0.833,0l0,0.938l0.417,0c0.46,0 0.833,0.42 0.833,0.937Zm0,-7.5c0.23,0 0.417,0.21 0.417,0.469l0,0.469l1.25,0c0.23,0 0.416,0.21 0.416,0.469l0,0.937c0,0.754 -0.444,1.875 -1.666,1.875l-0.175,0c-0.321,0.828 -1.055,1.406 -1.909,1.406c-0.854,0 -1.587,-0.578 -1.909,-1.406l-0.174,0c-1.223,0 -1.667,-1.121 -1.667,-1.875l0,-0.937c0,-0.259 0.187,-0.469 0.417,-0.469l1.25,0l0,-0.469c0,-0.259 0.187,-0.469 0.417,-0.469l3.333,0Zm-3.75,4.219c-0.016,0.008 -0.016,0.01 -0.009,0.01c0.002,0 0.005,0 0.009,-0.001l0,-0.009l0,0Zm4.167,0l0,0.009c0.003,0.001 0.007,0.001 0.009,0.001c0.006,0 0.007,-0.002 -0.009,-0.01l0,0Z"/></clipPath><g clip-path="url(#_clip1)"><path d="M7.759,10.311c-0.016,0.008 -0.016,0.01 -0.009,0.01c0.002,0 0.005,0 0.009,-0.001l0,-0.009l0,0Z" style="fill:none;"/><path d="M10.259,11.717l-0.417,0l-0.416,0l0,0.938l-0.417,0c-0.46,0 -0.833,0.42 -0.833,0.937l3.333,0c0,-0.517 -0.373,-0.937 -0.833,-0.937l-0.417,0l0,-0.938l0,0Z" style="fill:none;"/><path d="M11.926,10.311l0,0.009c0.003,0.001 0.007,0.001 0.009,0.001c0.006,0 0.007,-0.002 -0.009,-0.01l0,0Z" style="fill:none;"/><path d="M11.092,7.03l0,2.636l-0.104,0.269c-0.2,0.513 -0.649,0.845 -1.146,0.845c-0.496,0 -0.946,-0.332 -1.145,-0.845l-0.105,-0.269l0,-0.292l0,-1.407l0,-0.937l2.5,0m0.417,-0.938l-3.333,0c-0.23,0 -0.417,0.21 -0.417,0.469l0,0.469l-1.25,0c-0.23,0 -0.417,0.21 -0.417,0.469l0,0.937c0,0.754 0.444,1.875 1.667,1.875l0.174,0c0.322,0.828 1.055,1.406 1.909,1.406c0.854,0 1.588,-0.578 1.909,-1.406l0.175,0c1.222,0 1.666,-1.121 1.666,-1.875l0,-0.937c0,-0.259 -0.186,-0.469 -0.416,-0.469l-1.25,0l0,-0.469c0,-0.259 -0.187,-0.469 -0.417,-0.469l0,0Zm0.417,3.282l0,-1.407l0.833,0l0,0.469c0,0.157 -0.04,0.938 -0.833,0.938l0,0Zm-4.167,0c-0.761,0 -0.83,-0.72 -0.833,-0.938l0,-0.469l0.833,0l0,1.407Z" style="fill:none;"/></g></svg>