<?xml version="1.0" encoding="UTF-8" standalone="no"?><!DOCTYPE svg PUBLIC "-//W3C//DTD SVG 1.1//EN" "http://www.w3.org/Graphics/SVG/1.1/DTD/svg11.dtd"><svg width="100%" height="100%" viewBox="0 0 10 12" version="1.1" xmlns="http://www.w3.org/2000/svg" xmlns:xlink="http://www.w3.org/1999/xlink" xml:space="preserve" style="fill-rule:evenodd;clip-rule:evenodd;stroke-linejoin:round;stroke-miterlimit:1.41421;"><path id="Rounded" d="M4.605,11.836c0.667,0 1.214,-0.546 1.214,-1.214l-2.428,0c0,0.668 0.54,1.214 1.214,1.214Zm3.642,-3.642l0,-3.035c0,-1.863 -0.996,-3.423 -2.732,-3.836l0,-0.413c0,-0.503 -0.406,-0.91 -0.91,-0.91c-0.504,0 -0.911,0.407 -0.911,0.91l0,0.413c-1.742,0.413 -2.731,1.967 -2.731,3.836l0,3.035l-0.783,0.783c-0.382,0.382 -0.115,1.038 0.425,1.038l7.994,0c0.54,0 0.813,-0.656 0.431,-1.038l-0.783,-0.783Z" style="fill:#fff;fill-rule:nonzero;"/></svg>