<?xml version="1.0" encoding="UTF-8" standalone="no"?><!DOCTYPE svg PUBLIC "-//W3C//DTD SVG 1.1//EN" "http://www.w3.org/Graphics/SVG/1.1/DTD/svg11.dtd"><svg width="100%" height="100%" viewBox="0 0 44 40" version="1.1" xmlns="http://www.w3.org/2000/svg" xmlns:xlink="http://www.w3.org/1999/xlink" xml:space="preserve" xmlns:serif="http://www.serif.com/" style="fill-rule:evenodd;clip-rule:evenodd;stroke-linejoin:round;stroke-miterlimit:1.41421;"><path d="M42.346,0l0.035,0.001c0.326,0.025 0.593,0.289 0.618,0.614l0.001,0.034l0,31.468l-0.001,0.034c-0.026,0.336 -0.309,0.606 -0.652,0.615l-35.761,0l-6.586,6.539l0,-38.656l0.001,-0.034c0.025,-0.325 0.29,-0.589 0.618,-0.614l0.035,-0.001l41.692,0Zm-2.346,3l-37,0l0,29.099l1.472,-1.462c0.573,-0.529 1.007,-0.832 2.114,-0.871l33.414,0l0,-26.766Z"/></svg>