<?xml version="1.0" encoding="UTF-8" standalone="no"?><!DOCTYPE svg PUBLIC "-//W3C//DTD SVG 1.1//EN" "http://www.w3.org/Graphics/SVG/1.1/DTD/svg11.dtd"><svg width="100%" height="100%" viewBox="0 0 20 20" version="1.1" xmlns="http://www.w3.org/2000/svg" xmlns:xlink="http://www.w3.org/1999/xlink" xml:space="preserve" style="fill-rule:evenodd;clip-rule:evenodd;"><path d="M16.592,9.842c0,3.729 -3.022,6.75 -6.75,6.75c-3.727,0 -6.75,-3.021 -6.75,-6.75c0,-3.727 3.023,-6.75 6.75,-6.75c3.728,0 6.75,3.023 6.75,6.75Z" style="fill:none;stroke:#fff;stroke-width:1.5px;"/><path d="M15.842,9.842c0,3.314 -2.686,6 -6,6c-3.313,0 -6,-2.686 -6,-6c0,-3.313 2.687,-6 6,-6c3.314,0 6,2.687 6,6" style="fill:#763b98;fill-rule:nonzero;"/><path d="M12.842,6.092l-6,0c-0.412,0 -0.75,0.338 -0.75,0.75l0,6.75l1.5,-1.5l5.25,0c0.413,0 0.75,-0.337 0.75,-0.75l0,-4.5c0,-0.412 -0.337,-0.75 -0.75,-0.75Z" style="fill:#fff;"/></svg>