<?xml version="1.0" encoding="UTF-8" standalone="no"?><!DOCTYPE svg PUBLIC "-//W3C//DTD SVG 1.1//EN" "http://www.w3.org/Graphics/SVG/1.1/DTD/svg11.dtd"><svg width="100%" height="100%" viewBox="0 0 20 20" version="1.1" xmlns="http://www.w3.org/2000/svg" xmlns:xlink="http://www.w3.org/1999/xlink" xml:space="preserve" style="fill-rule:evenodd;clip-rule:evenodd;"><path d="M16.592,9.842c0,3.729 -3.022,6.75 -6.75,6.75c-3.727,0 -6.75,-3.021 -6.75,-6.75c0,-3.727 3.023,-6.75 6.75,-6.75c3.728,0 6.75,3.023 6.75,6.75Z" style="fill:none;stroke:#fff;stroke-width:1.5px;"/><path d="M15.842,9.842c0,3.314 -2.686,6 -6,6c-3.313,0 -6,-2.686 -6,-6c0,-3.313 2.687,-6 6,-6c3.314,0 6,2.687 6,6" style="fill:#333334;fill-rule:nonzero;"/><path id="Write" d="M8.436,6.094c0.262,0.003 0.469,0.211 0.469,0.468c0,0.259 -0.21,0.469 -0.469,0.469l-1.172,0c-0.129,0 -0.234,0.105 -0.234,0.234l0,5.156c0,0.129 0.105,0.234 0.234,0.234l5.156,0c0.134,-0.004 0.235,-0.107 0.235,-0.234l0,-1.172c0,-0.259 0.21,-0.469 0.469,-0.469c0.258,0 0.468,0.21 0.468,0.469l0,1.875c0,0.259 -0.21,0.468 -0.468,0.468l-6.563,0c-0.259,0 -0.469,-0.209 -0.469,-0.468l0,-6.562c0,-0.257 0.207,-0.465 0.469,-0.468l1.875,0Zm3.366,0c-0.12,0 -0.239,0.045 -0.331,0.137l-3.504,3.378l0,2.109l2.11,0l0,0l3.378,-3.504c0.183,-0.182 0.183,-0.478 0,-0.661l-1.322,-1.322c-0.091,-0.092 -0.211,-0.137 -0.331,-0.137l0,0Zm-2.124,4.686l2.788,-2.89l-0.67,-0.67l-2.891,2.787l0,0.773l0.773,0Z" style="fill:#fff;"/></svg>