<?xml version="1.0" encoding="UTF-8" standalone="no"?><!DOCTYPE svg PUBLIC "-//W3C//DTD SVG 1.1//EN" "http://www.w3.org/Graphics/SVG/1.1/DTD/svg11.dtd"><svg width="100%" height="100%" viewBox="0 0 20 20" version="1.1" xmlns="http://www.w3.org/2000/svg" xmlns:xlink="http://www.w3.org/1999/xlink" xml:space="preserve" style="fill-rule:evenodd;clip-rule:evenodd;"><path d="M16.592,9.842c0,3.729 -3.022,6.75 -6.75,6.75c-3.727,0 -6.75,-3.021 -6.75,-6.75c0,-3.727 3.023,-6.75 6.75,-6.75c3.728,0 6.75,3.023 6.75,6.75Z" style="fill:none;stroke:#fff;stroke-width:1.5px;"/><path d="M15.842,9.842c0,3.314 -2.686,6 -6,6c-3.313,0 -6,-2.686 -6,-6c0,-3.313 2.687,-6 6,-6c3.314,0 6,2.687 6,6" style="fill:#3b9853;fill-rule:nonzero;"/><g id="ico_people"><path d="M11.065,9.842c-0.897,0 -1.549,-0.72 -1.549,-1.712c0,-1.072 0.579,-1.712 1.549,-1.712c0.97,0 1.549,0.64 1.549,1.712c0,0.992 -0.651,1.712 -1.549,1.712" style="fill:#fff;fill-rule:nonzero;"/><path d="M7.804,10.984c-0.697,0 -1.223,-0.561 -1.223,-1.305c0,-0.792 0.48,-1.304 1.223,-1.304c0.743,0 1.223,0.512 1.223,1.304c0,0.744 -0.525,1.305 -1.223,1.305" style="fill:#fff;fill-rule:nonzero;"/><path d="M13.46,11.525c-0.245,-0.862 -1.118,-1.357 -2.394,-1.357c-0.888,0 -1.579,0.24 -2,0.676c-0.076,0.078 -0.05,0.207 0.046,0.257c0.383,0.199 0.652,0.501 0.778,0.89c0.065,0.199 0.103,0.42 0.114,0.659c0.007,0.124 -0.014,0.247 -0.058,0.36c-0.038,0.1 0.034,0.207 0.141,0.216c0.295,0.025 0.616,0.037 0.936,0.037c0.976,0 1.961,-0.113 2.303,-0.338c0.175,-0.115 0.275,-0.307 0.266,-0.515c-0.014,-0.326 -0.058,-0.624 -0.132,-0.885" style="fill:#fff;fill-rule:nonzero;"/><path d="M7.778,13.266c-0.62,0 -1.233,-0.063 -1.46,-0.191c-0.145,-0.083 -0.232,-0.23 -0.225,-0.386c0.008,-0.201 0.039,-0.385 0.091,-0.546c0.174,-0.538 0.75,-0.833 1.621,-0.833c0.871,0 1.446,0.295 1.62,0.833c0.051,0.156 0.082,0.335 0.091,0.53c0.007,0.158 -0.078,0.309 -0.222,0.392c-0.233,0.134 -0.878,0.201 -1.516,0.201" style="fill:#fff;fill-rule:nonzero;"/></g></svg>