<svg viewBox="0 0 464 452"><g><path d="M184.876,0.396c1.223,0.288 2.466,0.5 3.668,0.863c2.408,0.729 4.716,1.759 6.867,3.064c3.226,1.956 6.071,4.522 8.35,7.529c1.52,2.005 2.782,4.194 3.755,6.515c0.974,2.321 1.652,4.754 2.018,7.244c0.365,2.49 0.417,5.016 0.152,7.519c-0.132,1.249 -0.421,2.476 -0.631,3.714l-92.16,391.68c-0.968,3.197 -1.068,4.07 -2.626,7.046c-1.168,2.23 -2.611,4.303 -4.297,6.172c-1.685,1.869 -3.599,3.519 -5.696,4.91c-3.143,2.086 -6.677,3.568 -10.367,4.35c-2.462,0.521 -4.98,0.731 -7.494,0.624c-3.769,-0.161 -7.499,-1.039 -10.944,-2.575c-2.298,-1.026 -4.459,-2.336 -6.43,-3.901c-1.971,-1.564 -3.737,-3.371 -5.257,-5.376c-2.279,-3.007 -3.98,-6.44 -4.992,-10.074c-1.012,-3.634 -1.33,-7.453 -0.933,-11.204c0.132,-1.249 0.421,-2.476 0.631,-3.714l92.16,-391.68c0.364,-1.202 0.653,-2.43 1.091,-3.606c0.879,-2.358 2.051,-4.597 3.489,-6.662c2.155,-3.096 4.895,-5.775 8.038,-7.861c3.144,-2.085 6.677,-3.567 10.368,-4.349c3.287,-0.696 4.154,-0.556 7.494,-0.624c1.249,0.132 2.497,0.264 3.746,0.396Z" style="fill-rule:nonzero;"/><path d="M375.916,0.396c1.223,0.288 2.466,0.5 3.668,0.863c2.408,0.729 4.716,1.759 6.867,3.064c2.152,1.305 4.131,2.876 5.89,4.675c1.76,1.799 3.286,3.813 4.543,5.993c1.884,3.268 3.141,6.888 3.69,10.62c0.365,2.49 0.417,5.016 0.152,7.519c-0.132,1.249 -0.421,2.476 -0.631,3.714l-92.16,391.68c-0.968,3.197 -1.068,4.07 -2.626,7.046c-1.168,2.23 -2.611,4.303 -4.297,6.172c-1.685,1.869 -3.599,3.519 -5.696,4.91c-2.097,1.391 -4.361,2.513 -6.738,3.339c-2.377,0.826 -4.849,1.35 -7.356,1.558c-2.508,0.209 -5.033,0.102 -7.514,-0.32c-3.719,-0.632 -7.309,-1.97 -10.535,-3.926c-3.225,-1.957 -6.071,-4.523 -8.349,-7.529c-2.279,-3.007 -3.98,-6.44 -4.992,-10.074c-1.012,-3.634 -1.33,-7.453 -0.933,-11.204c0.132,-1.249 0.421,-2.476 0.631,-3.714l92.16,-391.68c0.364,-1.202 0.653,-2.43 1.091,-3.606c0.879,-2.358 2.051,-4.597 3.489,-6.662c2.155,-3.096 4.895,-5.775 8.038,-7.861c3.144,-2.085 6.677,-3.567 10.368,-4.349c3.287,-0.696 4.154,-0.556 7.494,-0.624c1.249,0.132 2.497,0.264 3.746,0.396Z" style="fill-rule:nonzero;"/><path d="M437.493,119.758c1.234,0.232 2.485,0.386 3.702,0.695c3.657,0.927 7.129,2.548 10.188,4.756c2.04,1.473 3.887,3.197 5.497,5.131c1.61,1.934 2.971,4.063 4.049,6.337c1.079,2.274 1.867,4.674 2.346,7.145c0.718,3.703 0.73,7.535 0.034,11.242c-0.464,2.474 -1.237,4.879 -2.302,7.159c-1.596,3.419 -3.838,6.525 -6.58,9.116c-1.83,1.729 -3.869,3.22 -6.071,4.439c-2.201,1.219 -4.548,2.156 -6.983,2.79c-3.252,0.845 -4.125,0.745 -7.458,0.965l-368.303,1.124c-1.254,-0.075 -2.515,-0.072 -3.761,-0.225c-3.744,-0.462 -7.392,-1.635 -10.703,-3.442c-3.312,-1.807 -6.272,-4.241 -8.685,-7.14c-2.413,-2.899 -4.27,-6.252 -5.446,-9.836c-0.785,-2.391 -1.266,-4.871 -1.432,-7.382c-0.166,-2.511 -0.015,-5.033 0.449,-7.507c0.464,-2.473 1.238,-4.878 2.302,-7.159c1.596,-3.418 3.839,-6.525 6.581,-9.115c1.829,-1.729 3.869,-3.22 6.07,-4.439c2.202,-1.219 4.548,-2.156 6.984,-2.79c3.251,-0.845 4.125,-0.745 7.457,-0.965l368.304,-1.124c1.254,0.075 2.507,0.15 3.761,0.225Z" style="fill-rule:nonzero;"/><path d="M401.973,271.918c1.234,0.232 2.485,0.386 3.702,0.695c3.657,0.927 7.129,2.548 10.188,4.756c2.04,1.473 3.887,3.197 5.497,5.131c1.61,1.934 2.971,4.063 4.049,6.337c1.617,3.408 2.581,7.117 2.829,10.881c0.166,2.511 0.015,5.033 -0.449,7.506c-0.464,2.474 -1.237,4.879 -2.302,7.159c-1.596,3.419 -3.838,6.525 -6.58,9.116c-1.83,1.728 -3.869,3.22 -6.071,4.439c-2.201,1.219 -4.548,2.156 -6.983,2.789c-3.252,0.846 -4.125,0.746 -7.458,0.966l-368.303,1.124c-1.254,-0.075 -2.515,-0.072 -3.761,-0.225c-3.744,-0.462 -7.392,-1.635 -10.703,-3.442c-3.312,-1.807 -6.272,-4.241 -8.685,-7.14c-1.61,-1.934 -2.97,-4.063 -4.049,-6.337c-1.616,-3.408 -2.581,-7.117 -2.829,-10.881c-0.166,-2.511 -0.015,-5.033 0.449,-7.507c0.464,-2.473 1.238,-4.878 2.302,-7.159c1.596,-3.418 3.839,-6.525 6.581,-9.115c1.829,-1.729 3.869,-3.22 6.07,-4.439c2.202,-1.219 4.548,-2.156 6.984,-2.79c3.251,-0.845 4.125,-0.745 7.457,-0.965l368.304,-1.124c1.254,0.075 2.507,0.15 3.761,0.225Z" style="fill-rule:nonzero;"/></g></svg>