<?xml version="1.0" encoding="UTF-8" standalone="no"?><!DOCTYPE svg PUBLIC "-//W3C//DTD SVG 1.1//EN" "http://www.w3.org/Graphics/SVG/1.1/DTD/svg11.dtd"><svg width="100%" height="100%" viewBox="0 0 33 29" version="1.1" xmlns="http://www.w3.org/2000/svg" xmlns:xlink="http://www.w3.org/1999/xlink" xml:space="preserve" xmlns:serif="http://www.serif.com/" style="fill-rule:evenodd;clip-rule:evenodd;stroke-linejoin:round;stroke-miterlimit:1.41421;"><path id="Evelina" d="M23,4c2.757,0 5,2.692 5,6c0,6.309 -7.637,11.425 -12,13.601c-4.368,-2.178 -12,-7.294 -12,-13.601c0,-3.308 2.243,-6 5,-6c1.286,0 2.694,0.88 3.765,2.353l1.618,1.772c0.798,1.098 2.436,1.098 3.234,0l1.618,-1.772c1.071,-1.473 2.479,-2.353 3.765,-2.353m0,-4c-2.829,0 -5.35,1.732 -7,4c-1.65,-2.268 -4.171,-4 -7,-4c-4.971,0 -9,4.477 -9,10c0,11.438 16,18 16,18c0,0 16,-6.562 16,-18c0,-5.523 -4.029,-10 -9,-10l0,0Z" style="fill:#54676d;fill-rule:nonzero;"/></svg>