<?xml version="1.0" encoding="UTF-8" standalone="no"?><!DOCTYPE svg PUBLIC "-//W3C//DTD SVG 1.1//EN" "http://www.w3.org/Graphics/SVG/1.1/DTD/svg11.dtd"><svg width="100%" height="100%" viewBox="0 0 37 28" version="1.1" xmlns="http://www.w3.org/2000/svg" xmlns:xlink="http://www.w3.org/1999/xlink" xml:space="preserve" style="fill-rule:evenodd;clip-rule:evenodd;stroke-linejoin:round;stroke-miterlimit:1.41421;"><path id="Film-Strip" d="M34,0c1.107,0.002 2,0.897 2,2l0,24c0,1.103 -0.893,1.998 -2,2l-32,0c-1.105,0 -2,-0.895 -2,-2l0,-24c0,-1.103 0.894,-1.998 2,-2l32,0Zm-26,24l0,-4l-4,0l0,4l4,0Zm4,-20l0,20l12,0l0,-20l-12,0Zm16,20l4,0l0,-4l-4,0l0,4Zm-24,-12l0,4l4,0l0,-4l-4,0Zm4,-8l-4,0l0,4l4,0l0,-4Zm24,0l-4,0l0,4l4,0l0,-4Zm-4,12l4,0l0,-4l-4,0l0,4Z"/></svg>