<?xml version="1.0" encoding="UTF-8" standalone="no"?><!DOCTYPE svg PUBLIC "-//W3C//DTD SVG 1.1//EN" "http://www.w3.org/Graphics/SVG/1.1/DTD/svg11.dtd"><svg width="100%" height="100%" viewBox="0 0 13 12" version="1.1" xmlns="http://www.w3.org/2000/svg" xmlns:xlink="http://www.w3.org/1999/xlink" xml:space="preserve" style="fill-rule:evenodd;clip-rule:evenodd;stroke-linejoin:round;stroke-miterlimit:1.41421;"><path d="M3.804,4.227c0,-0.465 0.381,-0.845 0.846,-0.845l6.763,0c0.465,0 0.846,0.38 0.846,0.845l0,7.609l-1.691,-1.691l-5.918,0c-0.465,0 -0.846,-0.38 -0.846,-0.845l0,-5.073Zm-2.113,2.536l-1.691,1.691l0,-7.609c0,-0.453 0.362,-0.826 0.845,-0.845l6.764,0c0.484,0.019 0.845,0.392 0.845,0.845l0,2.114l-4.227,0c-0.465,0 -0.845,0.38 -0.845,0.845l0,2.959l-1.691,0Z" style="fill:#fff;"/></svg>