<?xml version="1.0" encoding="UTF-8" standalone="no"?><!DOCTYPE svg PUBLIC "-//W3C//DTD SVG 1.1//EN" "http://www.w3.org/Graphics/SVG/1.1/DTD/svg11.dtd"><svg width="100%" height="100%" viewBox="0 0 12 12" version="1.1" xmlns="http://www.w3.org/2000/svg" xmlns:xlink="http://www.w3.org/1999/xlink" xml:space="preserve" style="fill-rule:evenodd;clip-rule:evenodd;stroke-linejoin:round;stroke-miterlimit:1.41421;"><path id="search" d="M8.674,7.633l-0.548,0l-0.195,-0.187c0.833,-0.972 1.263,-2.297 1.027,-3.706c-0.326,-1.929 -1.936,-3.469 -3.879,-3.705c-2.935,-0.361 -5.405,2.109 -5.044,5.044c0.236,1.943 1.776,3.553 3.705,3.879c1.409,0.236 2.734,-0.194 3.706,-1.027l0.187,0.195l0,0.548l2.949,2.949c0.284,0.284 0.749,0.284 1.034,0c0.284,-0.285 0.284,-0.75 0,-1.034l-2.942,-2.956Zm-4.163,0c-1.728,0 -3.123,-1.395 -3.123,-3.122c0,-1.728 1.395,-3.123 3.123,-3.123c1.727,0 3.122,1.395 3.122,3.123c0,1.727 -1.395,3.122 -3.122,3.122Z" style="fill:#ccc;fill-rule:nonzero;"/></svg>