<?xml version="1.0" encoding="UTF-8" standalone="no"?><!DOCTYPE svg PUBLIC "-//W3C//DTD SVG 1.1//EN" "http://www.w3.org/Graphics/SVG/1.1/DTD/svg11.dtd"><svg width="100%" height="100%" viewBox="0 0 512 470" version="1.1" xmlns="http://www.w3.org/2000/svg" xmlns:xlink="http://www.w3.org/1999/xlink" xml:space="preserve" xmlns:serif="http://www.serif.com/" style="fill-rule:evenodd;clip-rule:evenodd;stroke-linejoin:round;stroke-miterlimit:1.41421;"><path d="M301.707,0.829c3.018,1.538 3.033,1.547 5.598,3.758l201.004,220.41c1.347,1.903 2.707,3.848 3.272,6.091c0.859,3.418 0.376,7.118 -1.259,10.163c-0.549,1.022 -1.342,1.895 -2.013,2.842l-201.004,220.41c-2.264,1.951 -2.729,2.708 -5.598,3.758c-6.267,2.295 -14.208,-0.561 -17.437,-6.757c-1.412,-2.709 -1.246,-3.582 -1.605,-6.549l0,-117.324c-85.7,0.494 -170.635,36.346 -230.933,97.8c-2.757,2.811 -5.461,5.672 -8.118,8.578l-18.977,20.796c-2.265,1.951 -2.73,2.707 -5.599,3.756c-6.32,2.313 -14.226,-0.601 -17.434,-6.759c-1.412,-2.709 -1.246,-3.581 -1.604,-6.548l0,-69.699c0.075,-47.404 13.532,-94.797 38.809,-135.018c30.727,-48.895 78.45,-86.799 133.058,-105.466c26.386,-9.02 54.277,-13.561 82.222,-13.605l28.576,0l0,-117.33l0.407,-3.372c0.802,-2.127 1.629,-4.285 3.117,-5.979c2.266,-2.58 5.476,-4.266 8.817,-4.701c2.236,-0.291 4.489,0.225 6.701,0.745Zm1.277,309.859c1.798,1.13 3.616,2.284 4.93,3.932c1.975,2.476 2.73,5.63 3.091,8.835l0,94.933l167.656,-183.843l-167.656,-183.842l0,94.933l-0.355,3.153c-1.764,5.041 -5.4,9.461 -10.661,10.662c-1.032,0.235 -2.103,0.237 -3.154,0.355c-23.693,0 -47.49,-1.162 -70.8,1.726c-50.492,6.256 -98.506,30.295 -133.949,66.81c-40.345,41.566 -63.653,98.745 -63.746,157.236l0,33.271c62.149,-64.922 151.273,-105.847 242.991,-109.311c4.466,-0.169 8.934,-0.25 13.402,-0.253l12.102,0l3.154,0.355c0.998,0.349 1.996,0.699 2.995,1.048Z" style="fill-rule:nonzero;"/></svg>