<?xml version="1.0" encoding="UTF-8" standalone="no"?><!DOCTYPE svg PUBLIC "-//W3C//DTD SVG 1.1//EN" "http://www.w3.org/Graphics/SVG/1.1/DTD/svg11.dtd"><svg width="100%" height="100%" viewBox="0 0 15 15" version="1.1" xmlns="http://www.w3.org/2000/svg" xmlns:xlink="http://www.w3.org/1999/xlink" xml:space="preserve" style="fill-rule:evenodd;clip-rule:evenodd;stroke-linejoin:round;stroke-miterlimit:1.41421;"><path d="M14.122,6.782l-0.001,0.001l0.001,-0.001Zm-0.009,0.453c0.003,0.002 0.006,0.006 0.009,0.009l-0.009,-0.009Zm-6.248,-2.575c-0.41,0 -2.426,0.085 -4.146,1.676c-1.5,1.388 -2.394,3.523 -2.665,6.355c2.252,-3.18 4.398,-3.456 6.915,-3.456c0.269,0 0.487,0.219 0.487,0.488l0,2.642l5.436,-5.356l-5.436,-5.582l0,2.747c0,0.135 -0.055,0.263 -0.153,0.355c-0.097,0.092 -0.23,0.14 -0.362,0.132c-0.002,0 -0.028,-0.001 -0.076,-0.001m-7.556,9.187l-0.001,0l0.001,0Zm0.308,0.798c-0.056,0 -0.113,-0.007 -0.169,-0.024c-0.272,-0.077 -0.455,-0.328 -0.448,-0.61c0.1,-3.794 1.134,-6.621 3.074,-8.404c1.662,-1.529 3.525,-1.847 4.407,-1.908l0,-3.05c0,-0.258 0.159,-0.493 0.403,-0.596c0.249,-0.104 0.533,-0.052 0.722,0.132l6.207,6.372c0.118,0.116 0.186,0.281 0.186,0.457c0,0.175 -0.069,0.34 -0.194,0.463l-6.198,6.107c-0.189,0.187 -0.473,0.239 -0.722,0.134c-0.245,-0.103 -0.404,-0.337 -0.404,-0.597l0,-2.91c-1.998,0.023 -4.07,0.31 -6.334,4.133c-0.113,0.189 -0.316,0.301 -0.53,0.301" style="fill:#616770;fill-rule:nonzero;"/></svg>