<?xml version="1.0" encoding="UTF-8" standalone="no"?><!DOCTYPE svg PUBLIC "-//W3C//DTD SVG 1.1//EN" "http://www.w3.org/Graphics/SVG/1.1/DTD/svg11.dtd"><svg width="100%" height="100%" viewBox="0 0 20 20" version="1.1" xmlns="http://www.w3.org/2000/svg" xmlns:xlink="http://www.w3.org/1999/xlink" xml:space="preserve" style="fill-rule:evenodd;clip-rule:evenodd;"><path d="M16.592,9.842c0,3.729 -3.022,6.75 -6.75,6.75c-3.727,0 -6.75,-3.021 -6.75,-6.75c0,-3.727 3.023,-6.75 6.75,-6.75c3.728,0 6.75,3.023 6.75,6.75Z" style="fill:none;stroke:#fff;stroke-width:1.5px;"/><path d="M15.842,9.842c0,3.314 -2.686,6 -6,6c-3.313,0 -6,-2.686 -6,-6c0,-3.313 2.687,-6 6,-6c3.314,0 6,2.687 6,6" style="fill:#4586d9;fill-rule:nonzero;"/><path d="M6.401,13.592c-0.028,0 -0.057,-0.004 -0.085,-0.012c-0.135,-0.04 -0.227,-0.168 -0.224,-0.313c0.05,-1.942 0.567,-3.39 1.537,-4.303c0.832,-0.783 1.763,-0.946 2.204,-0.977l0,-1.562c0,-0.133 0.079,-0.253 0.202,-0.305c0.124,-0.054 0.266,-0.027 0.361,0.067l3.103,3.263c0.059,0.06 0.093,0.144 0.093,0.234c0,0.09 -0.034,0.175 -0.097,0.238l-3.099,3.127c-0.094,0.095 -0.237,0.122 -0.361,0.069c-0.123,-0.053 -0.202,-0.173 -0.202,-0.306l0,-1.49c-0.999,0.011 -2.035,0.158 -3.167,2.116c-0.056,0.097 -0.158,0.154 -0.265,0.154Z" style="fill:#fff;"/></svg>