<?xml version="1.0" encoding="UTF-8" standalone="no"?><!DOCTYPE svg PUBLIC "-//W3C//DTD SVG 1.1//EN" "http://www.w3.org/Graphics/SVG/1.1/DTD/svg11.dtd"><svg width="100%" height="100%" viewBox="0 0 18 18" version="1.1" xmlns="http://www.w3.org/2000/svg" xmlns:xlink="http://www.w3.org/1999/xlink" xml:space="preserve" style="fill-rule:evenodd;clip-rule:evenodd;stroke-linejoin:round;stroke-miterlimit:1.41421;"><path d="M18,1.5c0,-0.398 -0.158,-0.779 -0.439,-1.061c-0.282,-0.281 -0.663,-0.439 -1.061,-0.439c-3.39,0 -11.61,0 -15,0c-0.398,0 -0.779,0.158 -1.061,0.439c-0.281,0.282 -0.439,0.663 -0.439,1.061c0,3.383 0,11.576 0,14.959c0,0.398 0.158,0.779 0.439,1.06c0.282,0.282 0.663,0.44 1.061,0.44c3.39,0 11.61,0 15,0c0.398,0 0.779,-0.158 1.061,-0.44c0.281,-0.281 0.439,-0.662 0.439,-1.06c0,-3.383 0,-11.576 0,-14.959Zm-4.434,13.481l0,-12.143l-2.679,0l0,2.794c0,0.51 0.067,1.09 0.201,1.74l-0.088,0c-0.647,-0.853 -1.587,-1.28 -2.819,-1.28c-1.173,0 -2.094,0.399 -2.762,1.198c-0.669,0.799 -1.003,1.914 -1.003,3.344c0,1.41 0.328,2.513 0.985,3.309c0.657,0.797 1.56,1.195 2.71,1.195c1.243,0 2.169,-0.43 2.776,-1.288l0.113,0l0.517,1.131l2.049,0Zm-4.518,-1.74c0.683,0 1.183,-0.177 1.502,-0.531c0.318,-0.353 0.491,-0.954 0.521,-1.802l0,-0.258c0,-0.937 -0.162,-1.608 -0.486,-2.014c-0.324,-0.405 -0.851,-0.608 -1.581,-0.608c-0.595,0 -1.058,0.225 -1.388,0.675c-0.329,0.45 -0.494,1.104 -0.494,1.963c0,0.858 0.166,1.502 0.499,1.931c0.332,0.429 0.808,0.644 1.427,0.644Z" style="fill:#fff;"/></svg>